0
SECTION
2
HEADER
9
$INSUNITS
70
4
9
$ACADVER
1
AC1014
9
$HANDSEED
5
FFFF
0
ENDSEC
0
SECTION
2
TABLES
0
TABLE
2
VPORT
5
8
100
AcDbSymbolTable
0
ENDTAB
0
TABLE
2
LTYPE
5
5
100
AcDbSymbolTable
0
LTYPE
5
14
100
AcDbSymbolTableRecord
100
AcDbLinetypeTableRecord
2
BYBLOCK
70
0
0
LTYPE
5
15
100
AcDbSymbolTableRecord
100
AcDbLinetypeTableRecord
2
BYLAYER
70
0
0
ENDTAB
0
TABLE
2
LAYER
5
2
100
AcDbSymbolTable
70
2
0
LAYER
5
50
100
AcDbSymbolTableRecord
100
AcDbLayerTableRecord
2
0
70
0
6
CONTINUOUS
0
ENDTAB
0
TABLE
2
STYLE
5
3
100
AcDbSymbolTable
70
1
0
STYLE
5
11
100
AcDbSymbolTableRecord
100
AcDbTextStyleTableRecord
2
STANDARD
70
0
0
ENDTAB
0
TABLE
2
VIEW
5
6
100
AcDbSymbolTable
70
0
0
ENDTAB
0
TABLE
2
UCS
5
7
100
AcDbSymbolTable
70
0
0
ENDTAB
0
TABLE
2
APPID
5
9
100
AcDbSymbolTable
70
2
0
APPID
5
12
100
AcDbSymbolTableRecord
100
AcDbRegAppTableRecord
2
ACAD
70
0
0
ENDTAB
0
TABLE
2
DIMSTYLE
5
A
100
AcDbSymbolTable
70
1
0
ENDTAB
0
TABLE
2
BLOCK_RECORD
5
1
100
AcDbSymbolTable
70
1
0
BLOCK_RECORD
5
1F
100
AcDbSymbolTableRecord
100
AcDbBlockTableRecord
2
*MODEL_SPACE
0
BLOCK_RECORD
5
1B
100
AcDbSymbolTableRecord
100
AcDbBlockTableRecord
2
*PAPER_SPACE
0
ENDTAB
0
ENDSEC
0
SECTION
2
BLOCKS
0
BLOCK
5
20
100
AcDbEntity
100
AcDbBlockBegin
2
*MODEL_SPACE
0
ENDBLK
5
21
100
AcDbEntity
100
AcDbBlockEnd
0
BLOCK
5
1C
100
AcDbEntity
100
AcDbBlockBegin
2
*PAPER_SPACE
0
ENDBLK
5
1D
100
AcDbEntity
100
AcDbBlockEnd
0
ENDSEC
0
SECTION
2
ENTITIES
0
CIRCLE
5
100
100
AcDbEntity
8
0
100
AcDbCircle
10
1.066131386300324e-15
20
-1.5264461349059414e-15
30
0
40
42.75
210
0
220
0
230
1
0
LWPOLYLINE
5
101
100
AcDbEntity
8
0
100
AcDbPolyline
90
12
70
1
43
0.0
10
-71.593197732807624
20
33.996944050452321
10
-65.238816065133761
20
45.003055949547708
42
-0.45448936888712393
10
-63.760364109641387
20
45.293583443543419
10
-55.889727457341863
20
39.196152422706646
10
-55.828484802171076
20
39.275205172106212
10
-63.6991214544706
20
45.372636192942991
42
0.45448936888712171
10
-65.325418605512198
20
45.053055949547705
10
-71.679800273186075
20
34.046944050452318
42
0.45448936888711966
10
-71.143416306993203
20
32.478739281850395
10
-61.927567818975504
20
28.711283507420482
10
-61.889727457341863
20
28.803847577293386
10
-71.105575945359561
20
32.571303351723287
42
-0.45448936888712155
0
LWPOLYLINE
5
102
100
AcDbEntity
8
0
100
AcDbPolyline
90
12
70
1
43
0.0
10
-65.238816065133761
20
-45.003055949547708
10
-71.593197732807624
20
-33.996944050452321
42
-0.45448936888712155
10
-71.105575945359561
20
-32.571303351723287
10
-61.889727457341863
20
-28.803847577293386
10
-61.927567818975504
20
-28.711283507420482
10
-71.143416306993203
20
-32.478739281850395
42
0.45448936888712121
10
-71.679800273186075
20
-34.046944050452325
10
-65.325418605512198
20
-45.053055949547705
42
0.45448936888712171
10
-63.6991214544706
20
-45.372636192942991
10
-55.828484802171076
20
-39.275205172106212
10
-55.889727457341863
20
-39.196152422706646
10
-63.760364109641387
20
-45.293583443543419
42
-0.45448936888712393
0
LWPOLYLINE
5
103
100
AcDbEntity
8
0
100
AcDbPolyline
90
64
70
1
43
0.0
10
-34.969775673437269
20
33.965825315300002
42
-0.42277007501451924
10
34.969775673437255
20
33.965825315300023
42
0.34351945100492592
10
47.751727356945253
20
32.18827479731943
10
49.731461856650164
20
33.331275043647594
42
0.28983347944359011
10
50.724869167161835
20
35.225582729032354
10
50.172184283416243
20
42.015594360573949
42
-0.28983347944359361
10
51.1655915939279
20
43.909902045958717
10
64.791935684062722
20
51.777075474468489
42
-0.41421356237309509
10
68.890011895416052
20
50.678999263115159
10
78.334306747938626
20
34.321000736884884
42
-0.41421356237309237
10
77.236230536585296
20
30.222924525531539
10
63.60988644645051
20
22.355751097021717
42
-0.28983347944359533
10
61.472664213067375
20
22.442588972505835
10
55.868684090033312
20
26.316233937887962
42
0.28983347944359344
10
53.731461856650185
20
26.403071813372062
10
51.751727356945651
20
25.260071567043205
42
0.34351945100492592
10
46.90015542027303
20
13.301801440189742
42
-0.13906722243935221
10
46.900155420273045
20
-13.301801440189704
42
0.34351945100492542
10
51.751727356945658
20
-25.260071567043205
10
53.731461856650185
20
-26.403071813372065
42
0.28983347944359311
10
55.868684090033327
20
-26.316233937887965
10
61.472664213067382
20
-22.442588972505824
42
-0.28983347944359183
10
63.609886446450503
20
-22.35575109702172
10
77.236230536585296
20
-30.222924525531557
42
-0.41421356237309448
10
78.334306747938612
20
-34.321000736884876
10
68.890011895416052
20
-50.678999263115159
42
-0.41421356237309309
10
64.791935684062722
20
-51.777075474468489
10
51.1655915939279
20
-43.909902045958717
42
-0.2898334794435925
10
50.172184283416243
20
-42.015594360573949
10
50.724869167161827
20
-35.225582729032354
42
0.28983347944359306
10
49.731461856650164
20
-33.331275043647594
10
47.751727356945253
20
-32.18827479731943
42
0.3435194510049272
10
34.969775673437226
20
-33.965825315300052
42
-0.42277007501451896
10
-34.969775673437255
20
-33.965825315300016
42
0.34351945100492592
10
-47.751727356945253
20
-32.18827479731943
10
-49.731461856650164
20
-33.331275043647594
42
0.28983347944359011
10
-50.724869167161835
20
-35.225582729032354
10
-50.172184283416243
20
-42.015594360573949
42
-0.28983347944359361
10
-51.1655915939279
20
-43.909902045958717
10
-64.791935684062722
20
-51.777075474468489
42
-0.41421356237309509
10
-68.890011895416052
20
-50.678999263115159
10
-78.334306747938626
20
-34.321000736884884
42
-0.41421356237309237
10
-77.236230536585296
20
-30.222924525531539
10
-63.60988644645051
20
-22.355751097021717
42
-0.28983347944359533
10
-61.472664213067375
20
-22.442588972505835
10
-55.868684090033312
20
-26.316233937887962
42
0.28983347944359344
10
-53.731461856650185
20
-26.403071813372062
10
-51.751727356945665
20
-25.260071567043187
42
0.34351945100492665
10
-46.900155420273038
20
-13.301801440189678
42
-0.13906722243935199
10
-46.90015542027303
20
13.301801440189724
42
0.34351945100492592
10
-51.751727356945658
20
25.260071567043205
10
-53.731461856650185
20
26.403071813372065
42
0.28983347944359311
10
-55.868684090033327
20
26.316233937887965
10
-61.472664213067382
20
22.442588972505824
42
-0.28983347944359183
10
-63.609886446450503
20
22.35575109702172
10
-77.236230536585296
20
30.222924525531557
42
-0.41421356237309448
10
-78.334306747938612
20
34.321000736884876
10
-68.890011895416052
20
50.678999263115159
42
-0.41421356237309309
10
-64.791935684062722
20
51.777075474468489
10
-51.1655915939279
20
43.909902045958717
42
-0.2898334794435925
10
-50.172184283416243
20
42.015594360573949
10
-50.724869167161827
20
35.225582729032354
42
0.28983347944359306
10
-49.731461856650164
20
33.331275043647594
10
-47.751727356945253
20
32.18827479731943
42
0.34351945100492565
0
LWPOLYLINE
5
104
100
AcDbEntity
8
0
100
AcDbPolyline
90
12
70
1
43
0.0
10
71.593197732807624
20
-33.996944050452321
10
65.238816065133761
20
-45.003055949547708
42
-0.45448936888712393
10
63.760364109641387
20
-45.293583443543419
10
55.889727457341863
20
-39.196152422706646
10
55.828484802171076
20
-39.275205172106212
10
63.6991214544706
20
-45.372636192942991
42
0.45448936888712171
10
65.325418605512198
20
-45.053055949547705
10
71.679800273186075
20
-34.046944050452318
42
0.45448936888711966
10
71.143416306993203
20
-32.478739281850395
10
61.927567818975504
20
-28.711283507420482
10
61.889727457341863
20
-28.803847577293386
10
71.105575945359561
20
-32.571303351723287
42
-0.45448936888712155
0
LWPOLYLINE
5
105
100
AcDbEntity
8
0
100
AcDbPolyline
90
12
70
1
43
0.0
10
65.238816065133761
20
45.003055949547708
10
71.593197732807624
20
33.996944050452321
42
-0.45448936888712155
10
71.105575945359561
20
32.571303351723287
10
61.889727457341863
20
28.803847577293386
10
61.927567818975504
20
28.711283507420482
10
71.143416306993203
20
32.478739281850395
42
0.45448936888712121
10
71.679800273186075
20
34.046944050452325
10
65.325418605512198
20
45.053055949547705
42
0.45448936888712171
10
63.6991214544706
20
45.372636192942991
10
55.828484802171076
20
39.275205172106212
10
55.889727457341863
20
39.196152422706646
10
63.760364109641387
20
45.293583443543419
42
-0.45448936888712393
0
ENDSEC
0
SECTION
2
OBJECTS
0
DICTIONARY
5
C
100
AcDbDictionary
3
ACAD_GROUP
350
D
3
ACAD_MLINESTYLE
350
17
0
DICTIONARY
5
D
100
AcDbDictionary
0
DICTIONARY
5
1A
330
C
100
AcDbDictionary
0
DICTIONARY
5
17
100
AcDbDictionary
0
ENDSEC
0
EOF
